<?xml version="1.0" standalone="no"?>
<!DOCTYPE svg PUBLIC "-//W3C//DTD SVG 20010904//EN"
 "http://www.w3.org/TR/2001/REC-SVG-20010904/DTD/svg10.dtd">
<svg version="1.0" xmlns="http://www.w3.org/2000/svg"
 width="966.000000pt" height="966.000000pt" viewBox="0 0 966.000000 966.000000"
 preserveAspectRatio="xMidYMid meet">
<metadata>
Created by potrace 1.14, written by Peter Selinger 2001-2017
</metadata>
<g transform="translate(0.000000,966.000000) scale(0.100000,-0.100000)"
fill="#000000" stroke="none">
<path d="M4707 8526 c-10 -11 -16 -16 -12 -9 3 6 1 14 -4 17 -5 3 -12 -1 -15
-10 -6 -15 -9 -15 -29 2 -21 19 -21 19 -7 0 14 -18 13 -19 -2 -13 -13 4 -18 1
-18 -11 0 -15 -2 -15 -10 -2 -6 10 -10 11 -10 3 0 -7 -9 -13 -19 -13 -11 0
-22 -6 -24 -12 -4 -10 -6 -10 -6 0 -1 9 -6 10 -20 3 -10 -6 -21 -7 -25 -3 -4
3 -4 -1 0 -11 4 -12 1 -17 -10 -17 -9 0 -16 -3 -16 -8 0 -4 -18 -15 -40 -25
-23 -9 -43 -24 -46 -31 -3 -9 -12 -12 -21 -9 -10 4 -14 2 -10 -4 7 -11 -19
-26 -32 -18 -4 2 -8 -2 -8 -10 0 -8 5 -11 11 -8 6 4 5 -1 -3 -11 -11 -13 -16
-14 -22 -4 -7 10 -9 10 -10 -2 0 -10 -3 -8 -9 5 -5 11 -9 15 -9 8 -1 -7 -8
-10 -16 -7 -11 5 -13 10 -5 19 8 9 4 11 -15 7 -15 -2 -25 0 -25 7 0 6 -6 11
-14 11 -8 0 -17 6 -19 13 -4 9 -6 9 -6 -1 -1 -10 -5 -9 -17 3 -9 9 -22 14 -29
11 -7 -2 -21 4 -30 14 -14 16 -21 17 -39 8 -20 -11 -20 -10 -6 8 8 10 11 16 6
12 -5 -4 -18 -3 -29 3 -13 8 -17 8 -13 0 5 -7 -2 -7 -24 0 -16 6 -30 15 -30
19 0 5 -13 8 -29 8 -15 -1 -33 2 -40 6 -6 4 -11 2 -11 -4 0 -6 -5 -8 -10 -5
-6 4 -7 12 -3 18 5 9 3 9 -8 1 -8 -6 -23 -14 -33 -18 -20 -7 -20 -7 0 15 11
13 13 19 4 13 -8 -5 -19 -9 -25 -9 -5 0 -10 -5 -10 -12 0 -6 -4 -15 -8 -20 -5
-4 -8 -3 -7 2 5 21 -1 27 -14 16 -10 -9 -16 -8 -25 3 -15 18 -41 10 -42 -13 0
-10 -2 -11 -6 -3 -2 6 -11 12 -19 12 -9 0 -12 -5 -8 -12 4 -7 -3 -4 -16 7 -13
11 -20 14 -15 6 6 -11 4 -13 -9 -8 -9 4 -15 3 -12 -2 3 -5 -5 -8 -19 -8 -14 0
-22 4 -18 10 3 6 1 7 -5 3 -7 -4 -12 -15 -12 -24 0 -10 -3 -13 -8 -7 -11 16
-35 18 -29 2 3 -9 -4 -12 -25 -11 -19 1 -31 -3 -35 -14 -6 -13 -8 -13 -14 4
-6 15 -8 16 -8 3 -1 -9 -8 -20 -17 -23 -8 -3 -12 -2 -9 4 4 6 -5 5 -19 -1 -14
-7 -23 -16 -20 -21 3 -5 2 -8 -3 -7 -24 4 -43 -2 -37 -12 4 -7 1 -10 -7 -7 -8
3 -20 -2 -27 -11 -8 -9 -11 -10 -7 -3 3 6 1 12 -4 12 -6 0 -11 -5 -11 -11 0
-6 -7 -8 -16 -5 -14 5 -15 4 -4 -9 11 -13 10 -14 -4 -9 -11 4 -16 1 -16 -12 0
-17 -1 -16 -16 2 -8 10 -13 13 -9 7 4 -8 0 -13 -10 -13 -10 0 -13 -5 -9 -12 5
-8 2 -9 -9 -5 -10 3 -17 2 -17 -4 0 -6 -4 -7 -10 -4 -5 3 -10 1 -10 -5 0 -6
-8 -10 -17 -9 -32 3 -36 -1 -22 -18 11 -13 11 -15 1 -9 -8 5 -19 1 -28 -10 -9
-11 -13 -13 -9 -7 4 9 1 11 -9 7 -9 -3 -13 -10 -10 -15 3 -5 0 -9 -6 -9 -6 0
-8 -5 -4 -11 4 -8 0 -8 -15 0 -17 9 -21 9 -19 -1 2 -7 -3 -12 -11 -10 -12 3
-12 1 0 -14 13 -16 12 -16 -8 -5 -19 10 -22 9 -17 -4 4 -9 3 -15 -2 -14 -15 4
-44 -13 -39 -21 3 -5 -4 -6 -15 -3 -11 3 -20 0 -20 -6 0 -6 -7 -11 -16 -11 -8
0 -12 -4 -9 -10 3 -5 1 -10 -5 -10 -6 0 -8 -4 -5 -10 3 -5 -3 -10 -14 -10 -12
0 -21 -7 -21 -15 0 -14 -13 -20 -34 -16 -5 1 -3 -6 5 -15 9 -12 9 -15 2 -10
-8 4 -13 2 -13 -4 0 -6 -5 -8 -12 -4 -8 5 -9 2 -4 -11 6 -16 4 -16 -11 -4 -11
9 -14 10 -9 1 4 -7 1 -15 -8 -18 -9 -3 -13 -11 -9 -18 4 -6 -1 -5 -11 3 -9 8
-16 10 -15 5 4 -21 -2 -35 -11 -29 -5 3 -10 1 -10 -5 0 -6 -4 -9 -9 -6 -5 3
-8 -2 -7 -12 0 -9 -5 -16 -12 -14 -8 1 -11 -2 -7 -8 3 -5 1 -10 -5 -10 -6 0
-8 -4 -5 -10 3 -5 -1 -10 -10 -10 -11 0 -15 -5 -11 -16 3 -8 2 -12 -4 -9 -6 3
-10 1 -10 -5 0 -6 -4 -8 -10 -5 -6 4 -7 -1 -3 -11 5 -14 3 -16 -12 -11 -16 7
-16 5 -4 -10 9 -11 10 -14 2 -9 -7 4 -13 3 -13 -3 0 -6 -8 -8 -17 -5 -15 5
-16 4 -3 -5 13 -9 13 -12 1 -20 -7 -5 -10 -14 -7 -20 4 -6 4 -11 -1 -10 -20 3
-34 -2 -28 -11 3 -5 1 -10 -5 -10 -7 0 -9 -7 -6 -16 4 -12 2 -15 -9 -10 -9 3
-15 0 -15 -10 0 -9 -10 -30 -22 -47 -12 -17 -17 -27 -10 -23 7 4 12 2 12 -3 0
-6 -6 -11 -14 -11 -8 0 -18 -5 -22 -12 -5 -7 -2 -9 7 -4 8 4 4 -1 -8 -12 -15
-13 -19 -22 -12 -29 7 -7 7 -13 -2 -18 -8 -5 -10 -4 -5 3 4 7 2 12 -3 12 -6 0
-11 -6 -11 -14 0 -7 -7 -19 -15 -26 -12 -10 -13 -16 -3 -28 10 -13 10 -14 1
-8 -8 4 -13 1 -13 -9 0 -10 -5 -13 -12 -9 -7 4 -10 3 -5 -1 4 -5 -1 -18 -10
-29 -17 -20 -17 -20 0 -7 21 17 23 -1 2 -23 -9 -8 -12 -22 -8 -32 5 -13 3 -15
-7 -9 -10 6 -12 4 -7 -8 4 -12 2 -14 -10 -10 -10 4 -14 2 -10 -4 9 -15 -22
-75 -35 -67 -7 4 -8 2 -4 -5 4 -6 11 -9 15 -7 4 3 7 -6 7 -19 0 -13 -4 -21 -8
-19 -4 3 -8 -6 -8 -20 0 -14 -4 -26 -9 -26 -10 0 -9 -19 2 -37 6 -9 3 -11 -9
-6 -14 5 -15 3 -5 -15 9 -18 9 -21 -3 -16 -8 3 -17 0 -22 -7 -4 -8 -3 -10 4
-5 7 4 12 1 12 -8 0 -9 -6 -16 -12 -16 -9 0 -8 -4 2 -10 8 -5 10 -10 3 -10 -6
0 -9 -9 -6 -21 4 -12 0 -25 -8 -30 -12 -8 -12 -11 1 -19 9 -6 10 -10 3 -10 -6
0 -10 -9 -8 -20 2 -11 -1 -22 -6 -25 -5 -4 -6 -11 -3 -17 10 -17 10 -158 0
-158 -5 0 -3 -7 4 -15 11 -13 10 -14 -3 -10 -8 4 -18 1 -23 -6 -5 -8 -3 -10 7
-4 11 7 12 6 2 -7 -7 -8 -9 -19 -5 -23 4 -5 3 -6 -3 -3 -5 2 -21 -7 -34 -20
-14 -15 -17 -23 -8 -19 11 4 14 2 10 -8 -3 -8 -9 -12 -14 -9 -5 3 -9 -2 -9
-10 0 -9 -5 -16 -11 -16 -7 0 -9 -11 -5 -27 3 -16 3 -22 0 -15 -3 6 -10 12
-15 12 -6 0 -7 -4 -4 -10 3 -5 1 -10 -5 -10 -7 0 -8 -6 -1 -19 8 -15 7 -18 -7
-17 -12 1 -16 -7 -16 -31 0 -23 -3 -29 -12 -22 -8 6 -11 2 -9 -16 2 -14 0 -25
-3 -25 -4 0 -12 -11 -19 -25 -6 -14 -7 -23 -2 -19 5 3 6 -2 3 -10 -3 -9 -10
-13 -15 -10 -13 8 -11 -10 3 -24 9 -9 7 -11 -10 -7 -15 2 -19 0 -15 -11 3 -7
10 -11 17 -8 6 3 4 -1 -6 -8 -13 -11 -14 -18 -5 -33 10 -19 9 -19 -8 -5 -13
10 -16 11 -11 2 5 -8 1 -18 -10 -26 -13 -10 -14 -15 -4 -21 9 -6 11 -4 5 5 -6
9 -4 11 4 6 9 -6 8 -13 -5 -27 -9 -10 -14 -25 -11 -34 4 -8 2 -15 -4 -15 -6 0
-7 -6 -2 -12 14 -23 12 -37 -5 -31 -10 4 -14 3 -10 -1 3 -4 2 -21 -2 -37 -6
-20 -5 -27 2 -23 6 4 8 -1 3 -15 -4 -13 -2 -21 5 -21 7 0 2 -9 -11 -21 -13
-11 -18 -18 -11 -14 6 3 12 1 12 -4 0 -6 -6 -11 -12 -11 -9 0 -8 -4 2 -10 13
-9 13 -10 0 -10 -13 0 -13 -1 0 -10 13 -9 13 -10 0 -10 -13 0 -13 -1 0 -10 13
-9 13 -10 0 -10 -12 0 -13 -2 -1 -9 11 -7 11 -9 0 -14 -11 -3 -9 -9 6 -21 13
-11 15 -14 4 -11 -10 4 -16 0 -16 -9 0 -8 5 -12 11 -9 6 4 5 -1 -3 -10 -10
-13 -10 -17 -1 -17 9 0 9 -4 -1 -17 -10 -11 -10 -14 -1 -9 7 4 12 1 12 -8 0
-9 -5 -16 -11 -16 -5 0 -7 -5 -4 -10 4 -6 11 -8 16 -5 5 4 9 1 9 -4 0 -6 -8
-11 -17 -11 -17 -1 -17 -1 -1 -11 14 -8 15 -15 8 -35 -6 -14 -6 -23 -1 -20 11
7 25 -25 14 -33 -9 -7 -12 -61 -3 -61 12 0 10 -54 -2 -62 -10 -6 -10 -8 0 -8
6 0 12 -7 12 -16 0 -9 5 -12 13 -8 8 5 8 2 -2 -9 -10 -13 -10 -17 -1 -17 9 0
9 -4 -1 -17 -8 -9 -9 -14 -3 -10 7 4 15 0 18 -9 9 -22 8 -24 -11 -24 -16 -1
-16 -2 1 -11 15 -9 16 -13 5 -20 -11 -7 -10 -9 3 -9 14 0 16 -4 8 -25 -6 -16
-6 -27 2 -31 7 -5 8 -3 3 6 -6 9 -4 11 5 5 10 -6 9 -11 -5 -22 -18 -13 -18
-13 1 -13 16 0 17 -2 4 -10 -13 -9 -8 -14 12 -11 4 0 5 -9 3 -21 -3 -12 1 -26
8 -31 7 -5 2 -6 -13 -2 -22 5 -23 4 -7 -5 15 -10 16 -14 5 -28 -11 -13 -11
-14 1 -7 11 6 13 4 8 -8 -4 -10 -1 -17 5 -17 7 0 3 -6 -8 -14 -17 -13 -17 -15
-3 -21 10 -4 15 -15 13 -31 -1 -13 2 -24 7 -24 6 0 7 -5 4 -10 -4 -6 -12 -8
-18 -4 -7 3 -4 -1 6 -9 14 -11 15 -16 5 -20 -10 -4 -10 -6 1 -6 11 -1 10 -5
-5 -15 -18 -14 -18 -15 -1 -21 9 -4 17 -14 17 -22 0 -9 -5 -11 -12 -7 -7 4 -5
-2 5 -13 18 -21 18 -22 0 -32 -10 -6 -13 -11 -7 -11 7 0 15 -7 18 -16 3 -8 2
-13 -3 -10 -5 3 -12 -1 -15 -10 -9 -24 -7 -31 4 -14 8 11 10 8 7 -15 -3 -16 0
-38 5 -49 7 -12 7 -16 0 -12 -6 3 -13 2 -17 -4 -3 -5 -1 -10 6 -10 8 0 7 -5
-2 -17 -12 -14 -12 -15 -1 -9 11 7 12 4 3 -13 -8 -14 -8 -21 -1 -21 5 0 10 -5
10 -11 0 -5 -5 -7 -12 -3 -8 5 -9 0 -6 -14 5 -16 2 -22 -10 -23 -14 0 -15 -1
-2 -7 17 -8 20 -33 5 -44 -6 -5 -4 -8 4 -8 11 0 10 -4 -4 -13 -12 -10 -14 -16
-7 -21 18 -11 14 -29 -4 -22 -14 5 -15 4 -4 -9 8 -10 9 -15 2 -15 -6 0 -9 -7
-6 -15 4 -8 0 -23 -7 -32 -12 -15 -12 -16 3 -10 15 5 16 4 5 -13 -6 -11 -15
-20 -20 -20 -4 0 -5 5 -1 12 4 7 3 8 -5 4 -6 -4 -8 -13 -4 -19 11 -18 12 -37
2 -37 -5 0 -9 -7 -9 -15 0 -8 -5 -15 -11 -15 -5 0 -7 -4 -4 -10 3 -5 2 -10 -4
-10 -6 0 -8 -6 -5 -14 3 -8 0 -17 -7 -22 -8 -5 -10 -3 -4 6 5 9 4 11 -4 6 -9
-6 -9 -11 0 -22 9 -11 8 -14 -7 -14 -16 0 -17 -2 -4 -10 13 -8 13 -10 -2 -10
-9 0 -20 -5 -24 -12 -5 -7 -2 -9 7 -4 8 4 3 -2 -11 -14 -14 -12 -19 -19 -12
-15 6 3 12 1 12 -4 0 -6 -7 -11 -15 -11 -9 0 -12 -6 -8 -17 4 -10 2 -14 -5 -9
-6 3 -13 -3 -17 -14 -4 -12 -11 -17 -18 -13 -7 4 -6 -1 2 -10 12 -16 12 -17
-5 -10 -17 6 -17 5 -5 -10 12 -15 12 -17 -4 -11 -12 5 -16 4 -12 -3 4 -6 0
-14 -9 -17 -8 -3 -12 -10 -9 -16 9 -15 -22 -43 -37 -34 -9 5 -8 2 1 -10 12
-15 12 -17 0 -14 -8 2 -13 -4 -13 -14 1 -10 -2 -15 -7 -12 -5 3 -9 0 -9 -6 0
-6 -5 -8 -12 -4 -10 6 -10 4 0 -8 11 -13 10 -16 -5 -14 -11 0 -21 -10 -27 -29
-6 -16 -15 -33 -20 -36 -5 -4 -5 -12 -1 -19 5 -7 4 -11 -1 -8 -5 2 -19 -6 -32
-18 -17 -16 -20 -24 -11 -30 8 -5 9 -3 4 6 -6 9 -4 11 4 6 13 -9 6 -21 -12
-21 -7 -1 -11 -6 -10 -13 2 -7 -5 -12 -15 -13 -12 0 -13 -2 -3 -6 11 -4 8 -10
-10 -25 -13 -11 -19 -17 -12 -14 6 4 15 2 18 -4 4 -6 3 -10 -2 -9 -18 3 -36
-1 -30 -8 4 -3 2 -12 -5 -20 -9 -11 -7 -12 8 -7 18 5 18 5 1 -6 -9 -6 -22 -8
-27 -5 -15 10 -12 -2 6 -20 16 -15 16 -16 -1 -13 -10 2 -20 -3 -23 -11 -3 -9
0 -11 9 -7 8 4 5 0 -6 -9 -14 -12 -16 -19 -8 -22 9 -3 6 -11 -7 -26 -21 -22
-27 -43 -10 -32 5 3 7 0 4 -9 -3 -8 -12 -17 -21 -20 -12 -5 -13 -9 -3 -21 10
-12 10 -15 0 -15 -7 0 -10 -6 -7 -13 3 -8 1 -20 -3 -27 -5 -8 -4 -22 2 -33 8
-16 7 -19 -4 -14 -12 4 -14 -3 -13 -31 1 -23 7 -36 14 -34 7 1 10 -2 6 -8 -3
-6 -11 -8 -16 -5 -5 4 -9 1 -9 -4 0 -6 6 -11 13 -11 8 0 7 -4 -3 -10 -13 -9
-13 -10 0 -10 13 0 13 -1 0 -10 -12 -8 -12 -10 5 -11 l20 0 -20 -9 c-11 -5
-14 -9 -7 -9 7 -1 11 -5 7 -10 -3 -5 -1 -12 4 -16 6 -3 7 -13 4 -21 -3 -9 0
-20 8 -25 12 -7 12 -9 -1 -9 -13 -1 -13 -2 1 -10 11 -6 15 -21 12 -50 -2 -30
1 -40 12 -40 9 0 12 -6 8 -17 -5 -13 -2 -15 13 -10 17 6 17 5 3 -5 -15 -10
-15 -13 5 -31 16 -14 17 -17 4 -13 -12 3 -15 1 -11 -10 3 -7 9 -14 15 -14 5 0
7 -4 3 -9 -3 -5 0 -13 6 -17 7 -4 9 -3 5 4 -3 6 -3 13 2 16 4 2 9 -5 9 -16 3
-33 24 -78 34 -72 5 3 9 -2 9 -11 0 -10 5 -13 12 -9 7 5 8 3 3 -6 -5 -8 -1
-18 10 -27 14 -9 15 -13 4 -13 -12 0 -12 -2 1 -9 8 -6 17 -8 20 -6 3 2 6 -5 7
-15 1 -11 11 -29 22 -42 12 -12 21 -28 21 -35 0 -12 13 -17 33 -14 5 1 6 -3 2
-9 -9 -14 4 -52 16 -45 5 4 9 -1 9 -9 0 -9 5 -16 11 -16 5 0 7 -4 4 -10 -3 -6
1 -7 9 -4 11 4 16 0 16 -15 0 -12 4 -21 10 -21 5 0 6 -8 3 -17 -5 -13 -2 -15
11 -10 9 4 15 3 12 -2 -3 -5 1 -11 9 -15 8 -3 15 -12 15 -20 0 -9 6 -13 14
-10 11 4 13 0 9 -17 -4 -15 -3 -20 5 -15 7 4 12 1 12 -8 0 -9 5 -16 11 -16 5
0 7 -4 4 -10 -3 -5 1 -10 10 -10 10 0 13 -5 9 -12 -5 -8 -2 -9 10 -5 14 5 17
3 12 -8 -3 -8 -1 -15 5 -15 6 0 7 -5 4 -10 -4 -6 -1 -9 7 -8 7 2 12 -5 12 -14
-1 -10 7 -20 17 -23 11 -4 17 -11 14 -16 -4 -5 1 -9 10 -9 9 0 13 -4 10 -10
-3 -5 1 -10 9 -10 8 0 18 -4 21 -10 3 -6 -1 -7 -12 -4 -10 3 -7 -1 7 -9 14 -9
29 -13 35 -9 5 3 4 -2 -4 -12 -8 -9 -10 -16 -5 -15 5 1 16 1 24 0 13 -1 13 -2
0 -12 -12 -9 -11 -10 8 -6 12 3 20 1 17 -3 -3 -5 -2 -15 1 -24 5 -13 9 -14 20
-5 12 9 13 9 9 -4 -4 -8 -1 -18 4 -22 6 -3 8 -11 5 -17 -4 -7 -2 -8 5 -4 9 6
9 11 0 22 -22 26 -4 14 26 -18 17 -18 24 -28 16 -23 -10 6 -12 4 -7 -4 5 -7
10 -10 13 -7 3 3 15 0 27 -6 11 -7 25 -11 29 -10 5 1 6 -1 4 -5 -7 -11 19 -33
28 -25 4 4 3 -2 -3 -13 -15 -30 -15 -37 -1 -46 9 -5 12 -22 10 -45 -1 -20 1
-34 6 -31 6 4 10 0 10 -7 0 -8 -8 -12 -21 -9 -19 4 -18 3 3 -10 18 -11 20 -16
10 -20 -10 -4 -10 -6 -1 -6 6 -1 12 -6 12 -12 0 -5 -4 -8 -9 -4 -5 3 -13 1
-16 -5 -4 -6 -1 -9 6 -8 6 2 12 -7 14 -19 1 -12 -2 -20 -7 -17 -4 3 -8 0 -8
-5 0 -6 6 -11 13 -11 7 0 8 -3 2 -8 -14 -10 -20 -66 -6 -58 6 4 11 2 11 -3 0
-6 -10 -11 -22 -12 -13 0 -17 -3 -10 -6 15 -6 16 -43 0 -43 -6 0 -3 -7 8 -15
18 -14 18 -15 0 -9 -16 6 -17 4 -7 -15 10 -17 9 -22 -4 -27 -12 -5 -13 -9 -4
-20 10 -12 9 -13 -5 -8 -19 7 -20 0 -5 -28 8 -15 8 -19 0 -14 -19 12 -33 -4
-19 -22 11 -14 10 -15 -6 -9 -16 6 -17 5 -6 -8 9 -11 9 -15 1 -15 -7 0 -10 -4
-7 -8 2 -4 -4 -8 -14 -8 -15 0 -16 3 -8 13 9 11 6 12 -16 3 -21 -8 -28 -7 -32
4 -8 21 -34 28 -51 14 -11 -9 -13 -8 -11 2 2 8 -4 14 -12 15 -8 1 -14 7 -12
15 2 10 0 11 -11 2 -10 -9 -17 -9 -27 1 -10 9 -11 9 -6 0 11 -19 -27 -3 -59
25 -15 13 -33 21 -41 18 -8 -3 -14 1 -14 9 0 7 -4 17 -10 20 -5 3 -7 0 -4 -9
4 -10 0 -14 -12 -12 -10 2 -21 11 -25 22 -7 17 -8 17 -8 2 -1 -10 -4 -18 -7
-18 -4 0 -13 8 -21 18 -14 16 -14 16 -9 0 7 -23 2 -23 -20 0 -15 14 -17 14
-12 1 3 -9 2 -22 -2 -30 -5 -7 -5 -18 0 -24 5 -6 5 -17 0 -25 -6 -9 -3 -19 8
-28 9 -7 11 -11 5 -7 -7 3 -13 2 -13 -3 0 -6 7 -13 16 -16 12 -4 15 -15 12
-37 -3 -20 0 -33 9 -36 7 -3 11 -9 8 -13 -3 -5 0 -12 6 -16 8 -5 9 -3 4 6 -6
9 -4 11 4 6 7 -5 10 -14 7 -22 -4 -9 3 -18 17 -24 13 -5 16 -9 7 -10 -12 0
-11 -3 3 -11 9 -5 17 -17 17 -25 0 -8 5 -12 10 -9 6 3 10 -2 10 -12 0 -11 5
-24 11 -30 8 -8 7 -13 -2 -18 -8 -5 -10 -4 -5 3 4 7 3 12 -2 12 -6 0 -13 -7
-16 -16 -5 -13 -9 -14 -21 -4 -9 7 -15 8 -15 2 0 -5 -7 -13 -16 -16 -14 -5
-15 -4 -5 8 9 11 9 16 0 22 -7 4 -9 3 -6 -2 3 -6 -3 -16 -15 -23 -12 -7 -17
-8 -13 -1 7 11 -35 8 -55 -5 -5 -3 -10 0 -10 7 0 10 -2 10 -9 -1 -6 -9 -11
-10 -15 -2 -5 7 -15 7 -33 0 -14 -5 -28 -7 -31 -4 -3 2 -12 -1 -20 -8 -10 -8
-13 -8 -9 -1 4 7 0 15 -9 18 -8 3 -12 2 -9 -4 3 -6 1 -10 -4 -10 -6 0 -11 6
-11 13 0 7 -3 8 -8 2 -10 -14 -43 -16 -35 -1 4 7 1 7 -8 -1 -12 -10 -18 -10
-27 -1 -9 9 -12 9 -12 -3 0 -11 -2 -11 -9 -1 -4 8 -11 13 -15 13 -37 -5 -66 1
-60 12 6 9 4 9 -7 0 -15 -15 -33 -17 -24 -4 3 6 -6 6 -25 1 -29 -8 -31 -7 -25
13 5 20 4 19 -9 -3 -9 -14 -15 -19 -16 -11 0 8 -3 11 -6 8 -4 -3 -15 -2 -25 4
-15 8 -19 6 -19 -8 0 -15 -2 -16 -10 -3 -7 11 -10 11 -10 2 0 -7 -5 -10 -11
-6 -8 5 -8 1 0 -14 8 -15 8 -22 -2 -25 -6 -3 -7 -6 -1 -6 6 -1 9 -14 6 -32 -4
-25 -2 -30 9 -24 11 7 10 4 -1 -10 -8 -10 -10 -16 -3 -12 6 4 14 3 18 -3 3 -5
0 -10 -7 -10 -10 0 -9 -3 2 -9 8 -6 18 -7 23 -4 5 3 4 -4 -2 -15 -8 -15 -8
-23 1 -28 7 -5 8 -3 3 6 -5 9 -4 11 3 6 7 -4 12 -16 12 -26 0 -10 4 -22 10
-25 6 -3 7 1 4 12 -5 17 -5 17 6 0 6 -9 8 -22 4 -29 -4 -6 -3 -9 2 -6 5 3 14
0 21 -7 10 -11 10 -15 0 -18 -7 -3 -2 -6 11 -6 12 -1 22 -6 22 -12 0 -5 -5 -7
-12 -3 -7 4 -8 3 -4 -4 4 -6 13 -9 21 -5 8 3 15 0 15 -7 0 -6 4 -8 10 -5 6 3
7 -1 4 -9 -3 -9 -1 -16 6 -16 14 0 40 -25 40 -39 0 -6 5 -11 11 -11 6 0 9 -6
6 -14 -4 -9 2 -12 18 -10 17 1 22 -2 18 -12 -3 -8 5 -18 21 -25 14 -7 23 -15
21 -19 -2 -4 2 -7 10 -7 8 0 15 5 15 10 0 6 3 7 6 4 4 -4 1 -13 -5 -21 -10
-12 -8 -14 14 -11 17 1 25 -2 22 -10 -6 -13 32 -40 51 -37 6 2 12 -4 12 -13 0
-8 5 -15 11 -15 5 0 7 6 4 12 -4 7 0 5 8 -4 8 -10 19 -18 26 -18 6 0 11 -4 11
-9 0 -5 7 -12 16 -15 10 -4 13 -2 9 7 -4 6 1 3 9 -7 9 -11 16 -16 16 -10 0 5
4 3 9 -4 4 -7 19 -14 32 -15 13 0 29 -9 36 -18 8 -11 21 -15 39 -11 20 4 25 2
19 -8 -5 -9 -2 -10 15 -5 17 5 21 4 15 -6 -6 -11 -5 -12 5 -2 11 10 20 8 46
-7 29 -18 32 -19 38 -4 6 16 8 16 25 0 10 -9 25 -14 35 -10 10 4 16 1 16 -7 0
-11 3 -11 10 1 8 12 10 12 10 1 0 -10 3 -11 14 -2 11 9 16 9 22 0 5 -8 3 -9
-6 -4 -9 5 -11 4 -6 -4 6 -9 11 -9 21 -1 10 8 14 7 18 -2 3 -7 6 -8 6 -2 1 6
16 9 36 8 19 -2 37 2 41 8 4 7 9 6 14 -3 6 -9 12 -10 22 -2 7 5 34 9 59 9 37
-1 46 2 42 14 -3 11 -1 10 10 -2 8 -10 17 -15 21 -11 3 4 13 -2 20 -13 8 -10
18 -16 21 -12 4 4 14 0 22 -8 9 -8 21 -13 29 -10 7 3 18 -2 24 -9 7 -8 17 -12
23 -8 6 4 7 1 2 -7 -6 -9 -4 -12 6 -8 17 7 61 -26 51 -38 -4 -5 2 -2 12 6 16
12 18 12 11 1 -6 -11 -3 -13 18 -7 20 5 25 3 21 -7 -3 -10 5 -13 30 -12 19 0
33 -3 30 -6 -2 -4 0 -10 5 -13 5 -3 12 2 15 11 6 14 9 14 27 -5 24 -26 37 -29
18 -4 -7 9 0 6 15 -8 20 -17 27 -20 23 -9 -4 13 -1 16 14 12 10 -3 16 -10 13
-15 -4 -6 2 -7 16 -3 15 5 20 4 16 -4 -5 -7 -1 -8 10 -4 12 4 15 3 10 -5 -5
-8 -2 -10 8 -6 9 3 13 11 9 18 -4 6 0 6 9 -2 13 -10 17 -10 21 0 4 9 6 10 6 1
1 -7 8 -10 16 -7 9 4 15 0 15 -7 0 -9 3 -10 8 -4 11 15 55 18 46 2 -5 -8 -2
-8 9 2 9 7 17 10 17 5 0 -5 5 -2 10 6 8 13 10 12 10 -3 0 -10 5 -15 10 -12 6
4 8 11 5 16 -4 5 6 4 21 -1 22 -9 25 -8 16 3 -8 10 -6 13 9 13 11 0 18 -5 15
-13 -3 -7 1 -10 10 -6 7 3 14 9 14 14 0 5 7 9 16 9 9 0 12 -5 8 -13 -4 -6 3
-2 15 11 26 27 35 28 27 5 -6 -17 -5 -17 8 0 15 19 31 23 20 4 -6 -9 -5 -9 8
0 8 7 17 11 20 8 3 -3 11 3 19 12 13 16 12 17 -3 4 -10 -7 -18 -9 -18 -3 0 15
26 22 38 10 6 -6 12 -6 17 3 6 8 4 10 -5 4 -8 -5 -11 -4 -7 2 4 6 20 9 37 8
16 -1 27 1 24 6 -3 5 2 9 11 9 10 0 14 5 9 13 -5 9 -4 9 6 0 10 -9 16 -8 27 3
8 8 20 11 26 7 7 -4 8 0 4 11 -4 10 -3 15 3 11 6 -3 10 -1 10 5 0 6 5 8 10 5
5 -3 10 -1 10 6 0 9 3 9 14 0 11 -9 16 -9 22 0 5 8 3 9 -6 4 -8 -5 -11 -3 -8
6 3 8 10 14 16 14 6 0 18 9 27 20 9 11 13 14 10 7 -6 -11 -3 -11 13 -1 12 7
19 16 16 20 -4 7 25 23 38 21 4 -1 5 4 2 12 -3 8 0 17 7 22 8 5 10 3 5 -7 -4
-8 0 -5 9 6 9 11 21 19 26 17 5 -1 9 5 9 13 0 8 7 15 15 15 8 0 14 6 13 13 -2
6 3 11 11 9 9 -2 11 3 7 14 -5 14 -4 15 8 5 11 -9 14 -8 12 6 0 11 5 17 13 15
12 -3 12 0 1 13 -11 13 -10 14 5 9 13 -5 16 -4 11 4 -4 7 -1 12 9 12 11 0 15
5 11 15 -3 8 -1 15 5 15 6 0 7 6 3 13 -6 8 -3 8 9 -1 14 -12 15 -11 11 14 -5
25 -3 26 12 13 10 -8 15 -9 11 -2 -9 14 2 45 13 38 5 -3 12 0 16 6 4 8 3 9 -4
5 -7 -4 -12 -3 -12 3 0 14 30 42 39 37 4 -3 8 1 8 9 0 8 -5 11 -11 8 -6 -4 -4
2 5 13 9 10 19 27 22 37 4 10 11 15 17 12 5 -3 7 0 4 8 -3 8 0 18 7 23 8 5 10
3 4 -7 -6 -11 -5 -11 5 -2 7 6 19 9 28 6 10 -4 13 -2 8 5 -9 15 6 16 21 1 9
-9 11 -6 7 12 -3 14 -2 20 3 14 11 -14 36 -18 28 -5 -6 9 8 15 29 11 5 -1 5 6
2 16 -6 15 -5 15 14 -2 18 -16 20 -16 14 -2 -4 11 0 19 10 23 9 3 13 11 9 18
-4 6 2 4 12 -4 10 -8 16 -10 12 -4 -4 7 2 14 14 17 12 3 19 9 16 14 -3 5 6 13
19 20 16 7 22 8 17 1 -4 -7 -1 -8 6 -4 7 5 10 15 7 23 -3 8 -1 11 4 8 6 -3 10
0 10 7 0 9 3 9 10 -2 8 -13 10 -12 10 3 0 11 4 15 12 11 8 -5 9 -2 4 11 -5 15
-4 16 9 5 13 -11 14 -10 10 2 -4 9 1 18 10 22 10 3 13 11 9 18 -5 9 -2 8 9 -1
15 -12 17 -12 11 3 -3 9 -1 16 6 16 6 0 8 5 4 13 -5 7 0 6 11 -3 13 -10 16
-11 11 -2 -10 17 23 55 41 47 8 -3 11 0 7 6 -3 6 4 21 16 34 13 14 19 29 15
36 -5 8 -4 10 4 5 6 -4 14 0 17 8 3 9 11 13 18 9 6 -4 5 1 -3 10 -12 15 -12
17 4 11 13 -5 16 -4 11 4 -4 7 -1 12 10 12 13 0 14 3 4 15 -9 10 -9 15 -1 16
6 1 16 2 21 3 11 1 12 18 3 26 -4 3 -3 -1 2 -9 5 -10 4 -12 -4 -7 -6 4 -8 13
-4 19 4 7 8 17 8 22 1 6 6 9 13 7 7 -1 17 9 22 22 5 13 14 27 20 31 8 5 8 11
-1 21 -9 11 -8 14 7 14 16 0 16 2 4 10 -12 8 -12 10 3 16 14 5 15 9 6 20 -10
12 -8 13 7 7 17 -6 18 -5 4 12 -12 15 -12 17 -1 10 11 -6 13 -4 8 8 -4 10 -1
17 5 17 6 0 8 3 5 7 -4 3 -1 13 6 21 9 13 9 14 0 8 -7 -4 -13 -2 -13 3 0 10
14 15 33 12 5 -1 6 3 2 9 -3 6 -11 7 -17 4 -7 -5 -8 -2 -3 7 5 7 9 25 9 39 1
14 5 31 10 39 6 10 6 12 -2 7 -8 -5 -10 -2 -6 8 3 9 9 14 13 11 4 -2 8 2 8 9
0 8 -6 12 -13 9 -9 -3 -11 2 -7 16 3 12 13 21 22 21 11 1 8 5 -9 15 -19 11
-21 14 -8 15 11 0 15 5 12 15 -4 8 -11 12 -17 8 -6 -3 -7 -1 -3 6 4 6 11 9 16
6 5 -3 12 0 16 6 5 8 3 9 -6 4 -10 -6 -12 -4 -7 7 3 9 0 21 -6 27 -8 8 -6 11
8 12 18 0 18 1 -2 11 -13 6 -23 15 -23 20 0 5 5 6 10 3 6 -3 10 -1 10 4 0 6
-6 11 -12 11 -9 0 -8 4 2 10 11 7 12 12 4 18 -7 4 -12 21 -12 37 0 61 -2 76
-10 71 -4 -2 -7 13 -6 34 1 21 -3 44 -8 52 -7 9 -8 7 -3 -7 5 -16 4 -17 -6 -8
-10 10 -9 15 1 28 10 12 10 15 0 15 -7 0 -10 8 -7 20 3 11 1 20 -5 20 -5 0 -6
5 -3 10 3 6 1 10 -4 10 -6 0 -11 5 -11 11 0 5 4 8 8 5 5 -3 9 1 9 9 0 8 -2 13
-5 11 -6 -7 -31 18 -26 26 3 4 -3 22 -12 40 -17 32 -17 33 1 18 18 -14 17 -13
0 11 -11 15 -24 24 -29 21 -5 -3 -6 0 -2 6 3 6 1 14 -5 18 -8 4 -7 9 2 15 11
7 11 9 1 9 -7 0 -10 5 -7 10 4 6 11 7 17 4 7 -4 8 -2 4 4 -4 6 -14 8 -22 5
-13 -5 -15 -1 -10 15 6 18 4 21 -10 15 -13 -5 -16 -3 -11 10 3 8 -1 21 -8 27
-8 7 -12 16 -10 21 3 4 -3 12 -12 18 -16 9 -15 10 5 8 12 -1 22 -5 22 -9 0 -4
7 -8 15 -8 8 0 15 -3 15 -8 0 -4 9 -13 21 -20 17 -11 20 -11 14 0 -3 7 0 5 8
-4 8 -10 19 -18 26 -18 6 0 11 -4 11 -10 0 -5 6 -9 13 -7 6 1 11 -3 10 -9 -1
-6 8 -10 20 -10 12 1 22 -5 22 -13 0 -8 11 -16 25 -18 13 -2 28 -9 32 -16 6
-9 8 -8 8 3 1 12 3 11 11 -3 6 -9 14 -15 20 -12 5 4 9 1 9 -5 0 -6 4 -9 9 -5
5 3 16 -2 24 -10 9 -8 23 -15 32 -15 10 0 13 -5 9 -12 -5 -8 -2 -9 9 -5 11 4
17 1 17 -8 0 -12 6 -12 28 -5 26 10 26 10 7 -6 -13 -11 -14 -15 -4 -11 8 3 26
-3 39 -13 19 -15 28 -16 40 -7 8 6 12 7 7 2 -8 -9 20 -45 36 -45 6 0 2 7 -9
16 -18 14 -17 14 6 3 14 -7 30 -14 35 -14 20 -2 45 -17 40 -24 -2 -4 2 -8 10
-8 8 0 12 4 9 9 -3 4 0 8 5 8 6 0 11 -7 11 -15 0 -9 6 -12 17 -8 12 5 14 3 8
-8 -7 -12 -6 -12 7 -1 11 9 18 10 23 2 3 -6 11 -8 16 -5 5 3 6 -2 2 -11 -4
-12 -3 -15 5 -10 6 4 20 2 31 -3 14 -8 21 -8 24 2 3 6 6 3 6 -8 1 -17 3 -17
11 -5 9 13 10 13 11 0 1 -8 1 -18 0 -23 0 -4 4 -7 9 -7 6 0 10 7 10 16 0 13 3
14 15 4 8 -6 20 -8 26 -4 8 5 9 3 4 -6 -6 -10 -3 -12 13 -8 12 3 21 3 20 -1
-2 -20 4 -23 15 -6 11 14 16 15 22 5 6 -9 4 -11 -6 -6 -8 4 -6 1 4 -8 11 -8
26 -12 35 -9 11 5 13 3 7 -7 -6 -10 -4 -11 6 -4 21 13 39 14 39 2 0 -6 8 -8
18 -6 10 3 27 -1 36 -8 21 -15 49 -8 39 10 -4 6 1 5 10 -3 9 -7 17 -10 17 -6
0 4 7 2 16 -6 13 -10 17 -10 25 2 6 10 9 11 9 1 0 -15 31 -12 42 3 5 6 8 6 8
-2 0 -12 17 -12 37 0 6 4 15 2 19 -4 5 -8 3 -9 -6 -4 -9 6 -11 4 -5 -4 5 -9
11 -9 17 -3 6 6 17 8 26 5 11 -5 13 -3 7 8 -7 11 -6 12 6 3 16 -12 29 -12 48
0 10 6 12 5 7 -2 -10 -16 7 -15 23 1 9 7 11 7 8 1 -4 -7 0 -15 9 -18 8 -3 12
-2 9 4 -3 5 7 7 25 5 17 -2 30 1 30 7 0 7 4 7 13 -1 8 -6 17 -7 21 -3 11 10
30 9 38 -3 5 -6 8 -2 8 9 0 15 2 16 15 6 13 -10 18 -11 28 -1 9 10 8 11 -8 6
-16 -5 -17 -5 -5 3 9 7 18 8 26 1 8 -7 14 -6 19 1 3 5 11 10 16 10 6 0 7 -6 3
-12 -6 -9 -3 -9 9 0 9 8 20 11 26 8 5 -3 12 1 15 10 5 13 9 14 21 4 11 -9 15
-9 15 -1 0 7 5 9 10 6 6 -3 10 -1 10 6 0 8 5 7 17 -2 9 -8 14 -9 10 -3 -4 7 4
19 18 28 16 10 26 12 30 5 4 -6 12 -3 21 8 13 17 14 17 8 -2 -5 -17 -2 -16 15
5 11 14 21 19 21 12 0 -7 5 -10 10 -7 6 4 8 10 6 14 -3 4 1 8 8 8 8 0 12 -7 9
-16 -3 -12 -2 -11 7 2 6 9 15 15 21 12 5 -4 9 -1 9 5 0 6 4 8 10 5 6 -3 7 1 4
9 -7 19 7 21 25 3 9 -7 11 -7 8 -1 -6 11 6 21 27 22 5 0 13 8 18 17 8 13 12
14 26 3 9 -7 13 -8 9 -2 -7 12 51 46 65 38 4 -3 5 3 1 12 -4 12 -3 15 5 10 10
-6 16 4 14 25 -1 3 10 5 23 3 14 -1 25 2 25 7 0 6 5 7 11 4 6 -4 9 0 7 11 -2
15 3 19 22 18 22 -2 23 -1 6 12 -18 12 -18 13 0 13 49 1 54 4 41 20 -9 12 -9
13 1 7 7 -4 12 -2 12 5 0 7 3 10 6 7 6 -7 60 44 57 54 -2 4 6 5 17 3 13 -3 17
1 13 11 -3 9 1 14 12 14 15 0 15 3 5 15 -11 13 -10 14 4 9 9 -3 16 -1 16 6 0
6 4 8 10 5 6 -4 7 1 3 11 -4 12 -3 15 5 10 7 -4 12 -1 12 8 0 8 9 18 21 21 17
6 18 9 7 23 -10 12 -10 14 0 8 6 -4 12 -3 12 3 0 6 8 7 18 4 15 -6 16 -5 2 12
-12 15 -12 17 -1 10 11 -6 13 -4 7 10 -5 15 -4 16 9 5 8 -7 16 -10 16 -6 1 3
2 12 3 19 1 6 7 11 13 10 7 -2 10 6 8 18 -4 17 -2 19 11 8 12 -10 13 -9 8 6
-5 13 -4 16 4 11 16 -10 15 7 0 23 -11 11 -9 11 9 2 19 -10 22 -9 17 4 -4 8 1
17 10 21 9 3 13 10 10 15 -3 5 2 9 10 9 8 0 18 5 22 12 4 7 3 8 -4 4 -7 -4
-12 -2 -12 3 0 6 6 11 13 11 17 0 51 40 34 40 -6 1 -2 6 11 13 12 7 20 16 16
20 -9 9 16 38 27 31 5 -3 6 3 2 12 -5 13 -3 15 7 9 10 -6 12 -4 7 8 -6 16 3
22 26 18 4 -1 3 8 -3 19 -9 16 -8 19 6 13 12 -4 15 -3 10 5 -4 7 -2 12 5 12 7
0 9 3 6 7 -4 3 2 13 14 21 17 12 18 16 7 30 -10 12 -10 14 0 8 7 -4 12 -2 12
4 0 6 4 8 10 5 6 -3 7 1 4 9 -4 9 0 18 9 22 9 3 14 14 12 25 -2 11 0 17 6 14
5 -4 9 1 9 9 0 9 5 16 10 16 6 0 10 5 10 11 0 5 -6 7 -12 3 -7 -4 -1 4 15 19
31 30 34 39 10 31 -17 -5 -17 -5 0 6 9 6 17 18 17 26 0 8 4 13 9 10 5 -3 12 1
15 10 3 8 2 12 -4 9 -5 -3 -7 1 -4 9 3 8 13 12 22 9 14 -4 14 -3 3 5 -12 9
-13 13 -1 26 7 9 10 19 7 23 -4 3 1 12 11 20 9 8 11 12 5 8 -7 -3 -13 -2 -13
4 0 5 5 11 12 13 6 2 12 15 13 29 1 13 7 23 12 22 5 -1 8 13 7 30 -1 17 2 39
7 49 7 13 6 18 -3 19 -7 0 -2 5 11 10 19 8 21 12 11 24 -10 12 -10 18 0 30 10
12 10 15 0 15 -9 0 -10 3 -1 13 8 10 7 17 -2 27 -9 10 -9 11 1 6 9 -6 13 1 12
26 -1 43 4 70 15 87 5 9 4 12 -2 8 -10 -6 -11 28 -1 39 4 3 4 13 1 22 -4 10
-2 13 5 8 12 -7 7 35 -9 68 -9 20 -9 20 4 3 10 -12 17 -14 22 -8 3 6 2 11 -3
11 -5 0 -12 14 -14 30 -3 21 0 30 9 30 9 0 11 5 7 13 -5 8 -2 7 9 -2 15 -12
17 -12 14 0 -2 8 -2 11 0 6 3 -4 9 -5 14 -2 5 4 6 -2 2 -11 -5 -12 -3 -15 6
-9 10 6 11 2 6 -15 -5 -15 -4 -20 4 -16 10 7 16 -6 12 -27 -1 -4 8 -3 20 4 19
10 21 9 16 -5 -4 -10 -3 -14 2 -11 5 3 12 1 15 -4 4 -5 2 -12 -4 -16 -16 -10
-12 -25 8 -26 14 0 14 -2 -3 -9 -11 -5 -17 -9 -13 -9 4 -1 3 -14 -2 -31 -7
-23 -5 -32 8 -41 15 -9 15 -10 0 -5 -22 7 -30 -4 -15 -22 9 -13 9 -14 0 -8 -7
4 -13 3 -13 -3 0 -5 -3 -17 -7 -27 -5 -13 -3 -15 8 -9 12 8 12 6 0 -8 -7 -9
-16 -15 -20 -13 -4 3 -7 -10 -7 -27 1 -21 -3 -31 -12 -29 -8 1 -11 -2 -6 -9 3
-6 0 -15 -7 -20 -9 -5 -10 -9 -2 -9 13 0 12 -25 -2 -37 -4 -4 -5 -3 -1 4 3 6
2 14 -3 17 -5 4 -8 -2 -6 -11 1 -10 8 -17 15 -15 8 2 10 -3 7 -13 -6 -13 -3
-13 27 -1 19 8 37 11 41 8 3 -4 3 1 -1 11 -4 12 -1 17 10 17 8 0 20 9 26 20 6
11 15 18 20 15 5 -3 12 6 16 20 3 14 11 22 17 18 6 -4 8 0 4 11 -4 10 -3 15 3
11 6 -3 10 -1 10 5 0 6 5 8 13 4 8 -5 7 -2 -2 10 -13 15 -12 18 8 23 12 3 20
11 18 17 -6 17 13 47 24 40 7 -4 7 1 0 15 -10 18 -9 20 6 14 10 -3 15 -3 11 2
-4 4 -2 15 5 23 10 13 9 14 -3 7 -13 -7 -13 -5 1 11 17 21 18 32 6 51 -6 9 -3
11 7 7 19 -7 21 7 4 24 -9 9 -7 13 6 18 14 5 14 9 4 22 -8 10 -8 13 -2 9 7 -4
15 0 18 9 4 10 2 13 -7 8 -9 -6 -9 -4 -1 7 16 20 23 68 11 76 -6 4 -7 1 -2 -7
5 -9 4 -11 -4 -6 -8 6 -9 12 -2 20 6 7 7 17 3 21 -4 5 -1 5 6 1 7 -4 9 -13 6
-19 -4 -7 -3 -8 2 -4 12 12 12 30 -1 39 -6 5 -5 8 3 8 10 0 9 5 -3 17 -16 16
-16 17 1 30 10 7 12 13 6 13 -10 0 -10 5 -2 21 9 15 8 24 -1 35 -8 10 -8 14 0
14 6 0 11 5 11 11 0 5 -4 7 -10 4 -6 -3 -10 -1 -10 4 0 6 5 11 11 11 5 0 7 5
4 10 -4 6 -10 8 -15 5 -5 -3 -7 6 -4 21 3 18 1 23 -7 18 -8 -4 -9 -3 -5 5 6 9
12 9 24 -1 14 -10 15 -10 5 2 -7 8 -13 22 -13 33 0 11 -4 15 -12 11 -7 -5 -8
-3 -3 7 5 7 10 25 11 38 3 21 1 23 -7 11 -9 -12 -10 -10 -6 7 3 12 0 21 -5 20
-6 -1 -13 4 -15 11 -3 8 1 10 14 6 17 -6 17 -6 1 7 -10 8 -19 28 -20 46 -1 17
-6 29 -12 26 -5 -4 -7 1 -3 10 4 10 1 17 -6 17 -8 0 -6 4 3 10 12 8 12 10 -5
10 -17 0 -17 2 -5 10 11 7 11 10 2 10 -7 0 -11 4 -8 9 3 5 -1 14 -9 21 -11 9
-12 17 -4 31 7 13 6 19 -1 19 -6 0 -10 8 -9 18 3 33 -1 43 -13 36 -8 -5 -7 0
2 11 12 15 12 17 1 10 -11 -6 -13 -4 -8 8 3 9 0 23 -8 31 -11 11 -12 16 -2 19
9 4 8 6 -2 6 -11 1 -11 4 0 18 10 11 10 14 2 9 -8 -4 -13 -2 -13 4 0 6 -6 8
-12 5 -7 -4 -4 1 6 9 13 11 15 16 6 16 -7 0 -10 3 -7 6 3 4 1 16 -5 28 -10 20
-10 20 7 6 17 -14 18 -14 6 8 -7 12 -16 20 -22 17 -5 -4 -9 -1 -9 4 0 6 8 11
17 11 15 0 15 1 -1 13 -17 13 -17 14 -1 30 15 16 15 17 -7 18 -19 1 -20 2 -4
6 15 4 16 7 5 14 -11 7 -10 11 6 24 13 9 15 14 6 13 -11 -2 -15 7 -16 33 -1
29 2 36 15 31 12 -5 13 -3 2 10 -10 13 -9 18 4 29 14 12 14 14 -2 26 -10 7
-12 13 -6 13 7 0 12 12 12 26 0 14 4 23 8 20 11 -6 9 25 -3 43 -5 10 -4 12 3
7 8 -5 12 5 12 34 0 30 3 39 13 34 7 -5 6 -1 -3 10 -13 16 -12 20 3 31 14 10
15 14 5 18 -10 4 -10 6 0 6 6 1 12 6 12 12 0 5 -5 7 -11 3 -7 -4 -7 1 1 16 6
12 9 24 6 28 -3 3 2 14 11 24 16 18 16 18 -2 12 -13 -5 -16 -4 -11 4 4 7 15
12 24 12 14 0 15 2 3 9 -16 10 -24 41 -11 41 5 0 7 12 4 26 -3 14 -1 23 4 20
5 -3 9 1 9 9 0 8 -4 15 -9 15 -4 0 -8 5 -8 11 0 5 4 8 8 5 5 -3 9 1 9 9 0 8
-5 11 -11 8 -6 -4 -5 1 3 10 11 14 11 17 0 18 -8 0 -5 4 6 9 19 8 19 9 1 9
-14 1 -16 4 -7 14 8 10 7 17 -1 25 -6 6 -8 15 -4 19 4 4 11 1 16 -7 7 -11 10
-11 10 -2 0 7 -7 15 -15 18 -14 6 -13 8 2 20 14 11 14 14 3 12 -11 -2 -15 8
-16 40 0 23 -5 46 -9 50 -5 4 -5 1 0 -7 6 -10 4 -12 -4 -6 -9 5 -10 10 -2 18
14 14 14 30 1 22 -7 -4 -9 3 -6 19 3 14 0 29 -6 32 -7 5 -8 2 -3 -6 5 -9 4
-11 -4 -6 -9 6 -9 11 1 24 10 12 10 14 1 8 -9 -5 -13 0 -13 13 0 12 -5 21 -11
21 -8 0 -7 6 2 17 10 11 10 14 2 9 -9 -5 -13 1 -13 19 0 18 -4 24 -12 19 -8
-5 -7 0 2 11 8 10 10 16 3 12 -7 -4 -21 6 -34 25 -14 20 -16 28 -7 20 14 -11
16 -10 11 7 -3 12 -10 18 -16 14 -6 -4 -8 0 -4 10 3 9 0 18 -9 21 -9 3 -15 16
-14 28 3 34 1 48 -7 47 -17 -3 -33 1 -32 9 4 23 -2 42 -12 37 -6 -4 -10 -1 -8
6 3 26 -1 40 -10 35 -5 -3 -12 1 -15 10 -3 8 -2 12 4 9 6 -3 10 -1 10 4 0 6
-8 11 -17 11 -15 0 -16 2 -3 10 13 9 13 10 0 11 -8 1 -19 1 -24 0 -5 -1 -4 4
2 12 9 11 8 18 -8 32 -11 10 -17 22 -14 26 3 5 -1 6 -9 3 -14 -5 -28 21 -31
56 -1 8 -12 17 -26 21 -14 4 -18 8 -10 9 10 1 8 5 -7 12 -13 6 -23 15 -23 20
0 5 5 6 10 3 6 -3 10 -4 10 0 0 3 -12 10 -26 15 -14 6 -23 14 -20 19 3 4 -1
17 -9 27 -15 19 -15 18 -10 -1 3 -11 -1 -8 -8 8 -7 15 -16 24 -20 21 -4 -4 -7
2 -7 14 0 13 -6 22 -16 22 -8 0 -12 5 -9 10 3 6 2 10 -4 10 -5 0 -13 9 -16 20
-3 11 -13 20 -21 20 -8 0 -14 4 -14 10 0 17 -68 80 -87 80 -13 0 -14 3 -5 8 8
6 1 14 -23 25 -20 10 -34 21 -30 26 3 5 -8 15 -25 23 -16 7 -30 16 -30 20 0 5
-9 8 -20 8 -11 0 -20 5 -20 11 0 5 -4 7 -10 4 -5 -3 -10 1 -10 9 0 15 -17 21
-49 17 -7 -2 -11 2 -8 6 3 5 2 15 -4 23 -6 11 -9 11 -9 2 0 -10 -5 -10 -20 -2
-11 6 -20 8 -20 4 0 -3 -6 -1 -13 5 -8 6 -24 12 -36 14 -13 2 -27 10 -32 18
-8 12 -11 12 -20 -1 -9 -12 -10 -10 -6 8 5 20 3 21 -10 11 -12 -10 -16 -10
-22 0 -5 7 -12 11 -16 9 -5 -1 -9 6 -11 17 -2 11 -8 21 -14 23 -5 2 -8 8 -4
13 3 5 0 9 -5 9 -6 0 -17 16 -25 35 -8 19 -18 35 -21 35 -3 0 -3 -6 1 -12 4
-7 -2 -4 -13 7 -10 11 -22 28 -26 39 -6 16 -10 16 -24 5 -12 -10 -14 -10 -9
-1 5 8 1 12 -11 12 -15 0 -16 2 -3 10 12 8 10 10 -8 10 -15 0 -21 4 -16 12 5
7 2 9 -9 5 -11 -4 -14 -2 -11 8 4 10 0 13 -15 10 -15 -3 -18 0 -14 13 6 15 4
15 -9 4 -18 -14 -34 0 -22 19 5 8 1 8 -14 0 -16 -8 -21 -7 -26 5 -3 8 -10 13
-15 9 -6 -3 -22 7 -37 22 -15 16 -21 19 -13 9 14 -19 13 -19 -18 -2 -18 9 -33
19 -33 22 0 3 5 2 12 -2 6 -4 8 -3 4 4 -3 6 -15 9 -26 7 -11 -2 -20 1 -20 6 0
6 -4 8 -9 5 -5 -3 -11 1 -15 9 -3 8 -12 15 -20 15 -15 0 -68 43 -63 51 1 2 -2
1 -7 -3 -6 -5 -15 -8 -20 -8 -6 0 -4 5 4 10 13 9 13 10 0 11 -8 1 -18 1 -22 0
-5 0 -8 9 -9 21 0 20 -1 20 -8 5 -6 -17 -8 -17 -30 2 -13 11 -30 17 -38 14
-12 -5 -14 -3 -8 8 4 8 4 11 0 6 -5 -4 -17 1 -28 10 -11 10 -18 13 -14 7 4 -7
-5 -11 -23 -11 -16 0 -26 5 -23 10 4 6 -5 8 -21 5 -16 -3 -33 0 -42 9 -8 8
-14 10 -14 5 0 -13 -43 -7 -48 7 -3 8 -8 7 -16 -5 -10 -13 -15 -14 -21 -4 -6
9 -4 11 5 5 8 -5 11 -4 7 2 -4 7 -20 8 -41 3 -22 -5 -38 -4 -45 3 -6 6 -11 7
-11 3 0 -5 -8 -2 -17 5 -11 10 -14 10 -9 2 4 -7 2 -13 -3 -13 -6 0 -11 6 -11
13 0 7 -3 8 -8 2 -9 -12 -32 -18 -32 -7 0 4 -11 7 -25 7 -14 0 -25 -4 -25 -10
0 -5 -5 -3 -10 5 -9 13 -10 13 -10 0 0 -13 -1 -13 -10 0 -9 13 -10 13 -10 0 0
-13 -1 -13 -10 0 -5 8 -10 11 -10 5 0 -5 -5 -3 -10 5 -8 12 -10 12 -10 1 0
-11 -5 -9 -22 5 -19 15 -20 16 -9 2 7 -10 10 -18 6 -18 -5 0 -17 8 -28 18 -11
9 -18 12 -14 6 7 -12 -29 -12 -40 1 -5 4 -3 5 4 1 6 -3 15 -1 19 6 4 7 4 10
-1 6 -4 -4 -15 -2 -23 5 -11 8 -14 8 -9 0 4 -6 3 -14 -3 -18 -5 -3 -10 1 -10
11 0 14 -2 15 -17 3 -14 -12 -15 -12 -9 0 7 10 4 12 -13 6 -17 -5 -20 -3 -14
11 4 11 3 15 -5 10 -6 -3 -13 -2 -17 4 -3 5 2 10 11 10 17 0 16 1 -1 13 -10 8
-15 19 -11 25 3 6 2 14 -4 17 -8 5 -7 11 1 21 10 12 9 13 -5 8 -12 -4 -15 -2
-10 9 3 8 0 18 -6 22 -8 5 -8 10 0 20 13 15 -3 30 -21 19 -6 -3 -3 5 6 20 10
14 16 26 14 27 -2 0 -12 2 -23 4 -10 2 -24 9 -30 16 -8 9 -8 10 2 5 6 -4 12
-2 12 3 0 10 -14 15 -32 12 -5 0 -8 4 -8 10 0 15 -26 39 -34 32 -3 -4 -6 1 -6
10 0 13 -42 37 -47 26 0 -2 -11 9 -23 24 -18 22 -25 25 -36 16 -8 -6 -14 -7
-14 -3 0 5 -10 14 -22 19 -13 6 -22 17 -20 24 1 7 -2 10 -8 6 -6 -3 -7 -12 -4
-18 4 -7 -10 4 -30 23 -21 19 -36 29 -34 21 2 -7 -3 -16 -9 -18 -7 -3 -13 2
-13 9 0 9 -9 14 -22 14 -17 -1 -22 4 -20 18 3 18 2 18 -13 2 -18 -17 -39 -12
-29 7 3 7 -2 3 -10 -7 -16 -20 -16 -20 -17 0 0 10 -3 13 -6 7 -2 -7 -9 -13
-14 -13 -6 0 -8 4 -4 9 3 5 1 12 -4 15 -5 4 -13 2 -16 -4 -5 -8 -11 -8 -20 0
-7 6 -20 8 -29 4 -11 -4 -16 -1 -16 12 0 16 -2 17 -10 4 -6 -10 -10 -11 -10
-2 0 6 -5 12 -11 12 -5 0 -7 -4 -4 -10 3 -6 -1 -7 -9 -4 -9 3 -13 11 -9 18 5
8 3 8 -8 0 -16 -12 -29 -12 -48 0 -10 7 -12 6 -6 -3 5 -9 0 -12 -16 -9 -13 2
-26 6 -29 9 -3 4 -13 -3 -23 -15z m-967 -56 c0 -5 -5 -10 -11 -10 -5 0 -7 5
-4 10 3 6 8 10 11 10 2 0 4 -4 4 -10z m690 -74 c0 -2 -7 -7 -16 -10 -8 -3 -12
-2 -9 4 6 10 25 14 25 6z m861 -13 c13 -16 12 -17 -3 -4 -10 7 -18 15 -18 17
0 8 8 3 21 -13z m999 -503 c0 -5 -5 -10 -11 -10 -5 0 -7 5 -4 10 3 6 8 10 11
10 2 0 4 -4 4 -10z m1034 -656 c3 -8 2 -12 -4 -9 -6 3 -10 10 -10 16 0 14 7
11 14 -7z m121 -94 c3 -6 -1 -7 -9 -4 -18 7 -21 14 -7 14 6 0 13 -4 16 -10z
m325 -405 c7 -9 8 -15 2 -15 -5 0 -12 7 -16 15 -3 8 -4 15 -2 15 2 0 9 -7 16
-15z m-6099 -2898 c-10 -9 -11 -8 -5 6 3 10 9 15 12 12 3 -3 0 -11 -7 -18z
m5819 -621 c0 -3 -4 -8 -10 -11 -5 -3 -10 -1 -10 4 0 6 5 11 10 11 6 0 10 -2
10 -4z m-5360 -1866 c0 -5 -2 -10 -4 -10 -3 0 -8 5 -11 10 -3 6 -1 10 4 10 6
0 11 -4 11 -10z m-489 -797 c13 -16 12 -17 -3 -4 -10 7 -18 15 -18 17 0 8 8 3
21 -13z m249 -119 c0 -8 -19 -13 -24 -6 -3 5 1 9 9 9 8 0 15 -2 15 -3z"/>
<path d="M4115 8421 c-3 -5 -2 -12 3 -15 5 -3 9 1 9 9 0 17 -3 19 -12 6z"/>
<path d="M7638 6913 c7 -3 16 -2 19 1 4 3 -2 6 -13 5 -11 0 -14 -3 -6 -6z"/>
<path d="M1980 5159 c0 -5 5 -7 10 -4 6 3 10 8 10 11 0 2 -4 4 -10 4 -5 0 -10
-5 -10 -11z"/>
<path d="M8025 4860 c-3 -5 -1 -10 4 -10 6 0 11 5 11 10 0 6 -2 10 -4 10 -3 0
-8 -4 -11 -10z"/>
<path d="M6420 2245 c-11 -13 -10 -14 4 -9 9 3 16 10 16 15 0 13 -6 11 -20 -6z"/>
<path d="M4756 2147 c3 -10 9 -15 12 -12 3 3 0 11 -7 18 -10 9 -11 8 -5 -6z"/>
<path d="M1995 1400 c-3 -5 -1 -10 4 -10 6 0 11 5 11 10 0 6 -2 10 -4 10 -3 0
-8 -4 -11 -10z"/>
<path d="M4475 1160 c-3 -5 -1 -10 4 -10 6 0 11 5 11 10 0 6 -2 10 -4 10 -3 0
-8 -4 -11 -10z"/>
<path d="M1967 379 c7 -7 15 -10 18 -7 3 3 -2 9 -12 12 -14 6 -15 5 -6 -5z"/>
<path d="M2041 364 c0 -11 3 -14 6 -6 3 7 2 16 -1 19 -3 4 -6 -2 -5 -13z"/>
<path d="M2596 282 c-3 -5 1 -9 9 -9 8 0 12 4 9 9 -3 4 -7 8 -9 8 -2 0 -6 -4
-9 -8z"/>
</g>
</svg>
